<?xml version="1.0" encoding="UTF-8" standalone="no"?>
<!-- Created with Inkscape (http://www.inkscape.org/) -->

<svg
   xmlns:dc="http://purl.org/dc/elements/1.1/"
   xmlns:cc="http://creativecommons.org/ns#"
   xmlns:rdf="http://www.w3.org/1999/02/22-rdf-syntax-ns#"
   xmlns:svg="http://www.w3.org/2000/svg"
   xmlns="http://www.w3.org/2000/svg"
   xmlns:sodipodi="http://sodipodi.sourceforge.net/DTD/sodipodi-0.dtd"
   xmlns:inkscape="http://www.inkscape.org/namespaces/inkscape"
   id="svg6011"
   sodipodi:docname="cloud.svg"
   viewBox="0 0 147.55 98.704"
   version="1.1"
   inkscape:version="0.48.4 r9939"
   width="100%"
   height="100%">
  <defs
     id="defs10" />
  <title
     id="title6047">nuage</title>
  <sodipodi:namedview
     id="base"
     bordercolor="#666666"
     inkscape:pageshadow="2"
     inkscape:window-y="74"
     fit-margin-left="0"
     pagecolor="#ffffff"
     inkscape:window-height="665"
     inkscape:window-maximized="0"
     inkscape:zoom="3.959798"
     inkscape:window-x="346"
     showgrid="false"
     borderopacity="1.0"
     inkscape:current-layer="layer1"
     inkscape:cx="84.041713"
     inkscape:cy="53.965367"
     fit-margin-top="0"
     fit-margin-right="0"
     fit-margin-bottom="0"
     inkscape:window-width="1018"
     inkscape:pageopacity="0.0"
     inkscape:document-units="px" />
  <g
     id="layer1"
     inkscape:label="Calque 1"
     inkscape:groupmode="layer"
     transform="translate(-167.05 -379.6)">
    <path
       id="path4074"
       style="fill:#ffffff;stroke:#000000;stroke-width:2;stroke-linecap:round;stroke-linejoin:round"
       inkscape:connector-curvature="0"
       d="m 261.14238,384.6 c -13.132,0 -24.365,8.755 -28.939,21.153 -3.2836,-1.4488 -6.9285,-2.2234 -10.754,-2.2234 -12.897,0 -23.631,9.1352 -25.978,21.246 -1.6526,-0.41046 -3.3852,-0.61761 -5.1676,-0.61761 -11.606,0 -21.006,9.2545 -21.006,20.659 0,11.405 9.4001,20.659 21.006,20.659 3.6494,0 7.0932,-0.92418 10.084,-2.5322 5.1621,5.1757 13.55,8.554 23.017,8.554 7.6253,0 14.534,-2.1895 19.637,-5.7438 4.3851,4.5957 10.522,7.4422 17.319,7.4422 8.8302,0 16.549,-4.8187 20.754,-12.013 2.8951,1.6282 6.1657,2.5631 9.609,2.5631 12.035,0 21.788,-11.171 21.788,-24.952 0,-13.272 -9.0552,-24.107 -20.475,-24.89 -1.9342,-16.53 -15.033,-29.306 -30.894,-29.306 z" />
  </g>
  <metadata
     id="metadata8">
    <rdf:RDF>
      <cc:Work>
        <dc:format>image/svg+xml</dc:format>
        <dc:type
           rdf:resource="http://purl.org/dc/dcmitype/StillImage" />
        <cc:license
           rdf:resource="http://creativecommons.org/licenses/publicdomain/" />
        <dc:publisher>
          <cc:Agent
             rdf:about="http://openclipart.org/">
            <dc:title>Openclipart</dc:title>
          </cc:Agent>
        </dc:publisher>
        <dc:title>Nuage / cloud</dc:title>
        <dc:date>2011-03-06T19:15:56</dc:date>
        <dc:description />
        <dc:source>https://openclipart.org/detail/125875/nuage--cloud-by-lmproulx</dc:source>
        <dc:creator>
          <cc:Agent>
            <dc:title>lmproulx</dc:title>
          </cc:Agent>
        </dc:creator>
        <dc:subject>
          <rdf:Bag>
            <rdf:li>cloud</rdf:li>
            <rdf:li>line art</rdf:li>
            <rdf:li>sky</rdf:li>
            <rdf:li>thought</rdf:li>
          </rdf:Bag>
        </dc:subject>
      </cc:Work>
      <cc:License
         rdf:about="http://creativecommons.org/licenses/publicdomain/">
        <cc:permits
           rdf:resource="http://creativecommons.org/ns#Reproduction" />
        <cc:permits
           rdf:resource="http://creativecommons.org/ns#Distribution" />
        <cc:permits
           rdf:resource="http://creativecommons.org/ns#DerivativeWorks" />
      </cc:License>
    </rdf:RDF>
  </metadata>
</svg>
