<?xml version="1.0" encoding="utf-8"?>
<!-- Generator: Adobe Illustrator 14.0.0, SVG Export Plug-In . SVG Version: 6.00 Build 43363)  -->
<!DOCTYPE svg PUBLIC "-//W3C//DTD SVG 1.1//EN" "http://www.w3.org/Graphics/SVG/1.1/DTD/svg11.dtd">
<svg version="1.1" id="Layer_1" xmlns="http://www.w3.org/2000/svg" xmlns:xlink="http://www.w3.org/1999/xlink" x="0px" y="0px"
	 width="436.504px" height="152.503px" viewBox="0 0 436.504 152.503" enable-background="new 0 0 436.504 152.503"
	 xml:space="preserve">
<g>
	<g>
		<path fill="#404040" d="M51.464,0h23.872v110.496c-12.246,2.325-21.237,3.256-31.002,3.256C15.191,113.75,0,100.576,0,75.308
			c0-24.337,16.122-40.147,41.078-40.147c3.875,0,6.82,0.309,10.386,1.239V0z M51.464,55.62c-2.79-0.929-5.115-1.239-8.06-1.239
			c-12.091,0-19.067,7.441-19.067,20.461c0,12.712,6.666,19.687,18.912,19.687c2.634,0,4.805-0.154,8.215-0.619V55.62z"/>
		<path fill="#404040" d="M113.312,36.865v55.337c0,19.067-1.395,28.213-5.58,36.118c-3.876,7.597-8.992,12.401-19.532,17.673
			l-22.167-10.541c10.541-4.961,15.656-9.3,18.911-15.968c3.411-6.819,4.497-14.726,4.497-35.497V36.865H113.312z M89.441,0.127
			h23.871v24.492H89.441V0.127z"/>
		<path fill="#404040" d="M127.731,42.29c10.542-4.959,20.617-7.129,31.623-7.129c12.246,0,20.306,3.254,23.872,9.61
			c2.014,3.565,2.634,8.215,2.634,18.137v48.517c-10.697,1.55-24.182,2.636-34.102,2.636c-19.996,0-28.988-6.978-28.988-22.478
			c0-16.743,11.936-24.493,41.234-26.974v-5.27c0-4.34-2.17-5.889-8.216-5.889c-8.835,0-18.756,2.48-28.058,7.286L127.731,42.29
			L127.731,42.29z M165.089,80.268c-15.812,1.55-20.927,4.03-20.927,10.231c0,4.649,2.946,6.819,9.456,6.819
			c3.566,0,6.82-0.31,11.471-1.084V80.268L165.089,80.268z"/>
		<path fill="#404040" d="M197.487,40.585c14.105-3.72,25.73-5.424,37.512-5.424c12.246,0,21.082,2.789,26.354,8.215
			c4.96,5.114,6.509,10.694,6.509,22.632v46.812h-23.871V66.938c0-9.145-3.101-12.557-11.625-12.557
			c-3.256,0-6.201,0.31-11.008,1.705v56.734h-23.871V40.585z"/>
		<path fill="#404040" d="M277.142,125.841c8.372,4.341,16.741,6.354,25.577,6.354c15.654,0,22.32-6.354,22.32-21.546
			c0-0.154,0-0.311,0-0.465c-4.649,2.324-9.301,3.255-15.5,3.255c-20.927,0-34.26-13.796-34.26-35.651
			c0-27.129,19.688-42.474,54.564-42.474c10.232,0,19.688,1.084,31.158,3.409l-8.174,17.219c-6.355-1.24-0.509-0.166-5.312-0.631
			v2.481l0.31,10.074l0.153,13.022c0.155,3.254,0.155,6.51,0.312,9.765c0,2.945,0,4.342,0,6.512c0,20.461-1.705,30.071-6.82,37.977
			c-7.441,11.627-20.307,17.361-38.598,17.361c-9.302,0-17.361-1.395-25.732-4.65L277.142,125.841L277.142,125.841z M324.577,54.536
			c-0.311,0-0.619,0-0.775,0h-1.705c-4.648-0.155-10.074,1.084-13.797,3.409c-5.733,3.256-8.68,9.147-8.68,17.517
			c0,11.937,5.892,18.756,16.432,18.756c3.255,0,5.891-0.62,8.99-1.549v-1.707v-6.508c0-2.791-0.154-5.893-0.154-9.146
			l-0.154-11.005l-0.156-7.906V54.536L324.577,54.536z"/>
		<path fill="#404040" d="M398.063,34.85c23.869,0,38.441,15.037,38.441,39.373c0,24.958-15.189,40.614-39.373,40.614
			c-23.873,0-38.598-15.037-38.598-39.218C358.534,50.505,373.726,34.85,398.063,34.85z M397.594,95.615
			c9.148,0,14.574-7.597,14.574-20.773c0-13.02-5.271-20.771-14.416-20.771c-9.457,0-14.883,7.597-14.883,20.771
			C382.87,88.019,388.295,95.615,397.594,95.615z"/>
	</g>
</g>
</svg>
