<?xml version="1.0" encoding="utf-8"?>
<!-- Generator: Adobe Illustrator 16.0.0, SVG Export Plug-In . SVG Version: 6.00 Build 0)  -->
<!DOCTYPE svg PUBLIC "-//W3C//DTD SVG 1.1//EN" "http://www.w3.org/Graphics/SVG/1.1/DTD/svg11.dtd">
<svg version="1.1" id="Layer_1" xmlns="http://www.w3.org/2000/svg" xmlns:xlink="http://www.w3.org/1999/xlink" x="0px" y="0px"
	 width="83.36px" height="107.33px" viewBox="28.32 16.34 83.36 107.33" enable-background="new 28.32 16.34 83.36 107.33"
	 xml:space="preserve">
<g id="Layer_1_1_">
	<g>
		<g>
			
				<linearGradient id="SVGID_1_" gradientUnits="userSpaceOnUse" x1="394.625" y1="-183.7583" x2="461.6752" y2="-267.2336" gradientTransform="matrix(1 0 0 -1 -371 -136.5)">
				<stop  offset="0" style="stop-color:#4C4C4E"/>
				<stop  offset="1" style="stop-color:#040405"/>
			</linearGradient>
			<path fill="url(#SVGID_1_)" d="M45.68,43.98v-6.94h-7.46c0,0-5.4,0-5.4,7.09c0,7.09,0,16.42,0,16.42s-0.07,4.54-4.5,4.54v6.45
				h1.99c0,0,2.44-0.149,2.44,2.931c0,3.069,0,42.149,0,42.149s-0.23,7.05,6.3,7.05c6.53,0,57.3,0,57.3,0s5.81-0.38,5.81-7.05
				s0-7.5,0-7.5s-0.04-4.12,4.54-4.12v-6.23c0,0-4.46,0.08-4.46-4.649c0-4.72,0-6.56,0-6.56s0.15-7.541-5.96-7.541
				c-6.11,0-7.05,0-7.05,0v7.201h3.56c0,0,2.62,0.109,2.62,3.449s0,6.971,0,6.971s0.45,4.239,5.33,4.239c0,0-5.4,0.3-5.4,5.25
				s0,5.81,0,5.81s0.3,3.75-3.04,3.75c-3.34,0-49.95,0-49.95,0s-2.78-0.08-2.78-4.01s0-39.109,0-39.109s0.08-5.36-5.55-5.36
				c0,0,5.59-0.38,5.59-4.69s0-16.54,0-16.54s0.3-3.04,3-3.04C45.31,43.94,45.68,43.98,45.68,43.98z"/>
		</g>
		<g>
			<g>
				
					<linearGradient id="SVGID_2_" gradientUnits="userSpaceOnUse" x1="423.9619" y1="-219.9268" x2="435.8872" y2="-226.902" gradientTransform="matrix(1 0 0 -1 -371 -136.5)">
					<stop  offset="0" style="stop-color:#5A5B5D"/>
					<stop  offset="0.5539" style="stop-color:#2D2D2E"/>
					<stop  offset="0.8342" style="stop-color:#1B1B1B"/>
					<stop  offset="0.8829" style="stop-color:#222222"/>
					<stop  offset="0.9541" style="stop-color:#343436"/>
					<stop  offset="1" style="stop-color:#444446"/>
				</linearGradient>
				<path fill="url(#SVGID_2_)" d="M54.67,107.6c0,0-1.1,1.26-6.89-2.05c-5.79-3.319-4.92-4.72-4.92-4.72l20.74-36.2L75.41,71.4
					L54.67,107.6z"/>
			</g>
			<g>
				
					<linearGradient id="SVGID_3_" gradientUnits="userSpaceOnUse" x1="421.6289" y1="-224.124" x2="433.5042" y2="-231.07" gradientTransform="matrix(0.9979 0.0036 -0.0036 -0.9937 -368.4193 -141.0111)">
					<stop  offset="0" style="stop-color:#CECED0"/>
					<stop  offset="0.085" style="stop-color:#D6D7D9"/>
					<stop  offset="0.1928" style="stop-color:#DADBDD"/>
					<stop  offset="0.3611" style="stop-color:#C8C9CB"/>
					<stop  offset="0.6967" style="stop-color:#9A9B9E"/>
					<stop  offset="0.8342" style="stop-color:#858689"/>
					<stop  offset="0.8892" style="stop-color:#8C8D90"/>
					<stop  offset="0.9695" style="stop-color:#9FA1A4"/>
					<stop  offset="1" style="stop-color:#A8AAAD"/>
				</linearGradient>
				<path fill="url(#SVGID_3_)" d="M55.3,106.51c0,0-1.1,1.25-6.88-2.06c-5.79-3.31-4.93-4.7-4.93-4.7L63.27,65.3l11.81,6.771
					L55.3,106.51z"/>
			</g>
			<g>
				
					<linearGradient id="SVGID_4_" gradientUnits="userSpaceOnUse" x1="413.9678" y1="-237.3926" x2="425.8424" y2="-244.3381" gradientTransform="matrix(1.0048 -0.0083 0.0083 -1.0145 -359.4774 -156.5845)">
					<stop  offset="0" style="stop-color:#557435"/>
					<stop  offset="0.2052" style="stop-color:#4B573F"/>
					<stop  offset="0.3679" style="stop-color:#444446"/>
					<stop  offset="0.5402" style="stop-color:#474B43"/>
					<stop  offset="0.7922" style="stop-color:#4D5F3D"/>
					<stop  offset="1" style="stop-color:#557435"/>
				</linearGradient>
				<path fill="url(#SVGID_4_)" d="M57.71,102.311c0,0-1.12,1.289-6.91-2.031c-5.79-3.309-4.91-4.739-4.91-4.739L63.6,64.63
					L75.41,71.4L57.71,102.311z"/>
			</g>
			<g>
				
					<linearGradient id="SVGID_5_" gradientUnits="userSpaceOnUse" x1="412.0752" y1="-240.7285" x2="423.9023" y2="-247.6462" gradientTransform="matrix(1.0037 -0.0064 0.0064 -1.0111 -358.2044 -158.7724)">
					<stop  offset="0" style="stop-color:#557435"/>
					<stop  offset="0.0757" style="stop-color:#5D882D"/>
					<stop  offset="0.1576" style="stop-color:#59832A"/>
					<stop  offset="0.6884" style="stop-color:#42681B"/>
					<stop  offset="1" style="stop-color:#3A5E15"/>
				</linearGradient>
				<path fill="url(#SVGID_5_)" d="M57.8,102.141c0,0-1.12,1.279-6.9-2.031c-5.79-3.31-4.91-4.739-4.91-4.739l16.19-28.21
					l11.81,6.77L57.8,102.141z"/>
			</g>
			<g>
				
					<linearGradient id="SVGID_6_" gradientUnits="userSpaceOnUse" x1="109.9414" y1="-768.0938" x2="121.7377" y2="-774.9934" gradientTransform="matrix(0.9377 0.1087 -0.1087 -0.8102 -126.4161 -563.3785)">
					<stop  offset="0" style="stop-color:#90969C"/>
					<stop  offset="1" style="stop-color:#444446"/>
				</linearGradient>
				<path fill="url(#SVGID_6_)" d="M69.32,82.04c0,0-0.9,0.899-6.69-2.41c-5.79-3.319-5.13-4.36-5.13-4.36l5.58-9.91l11.81,6.77
					L69.32,82.04z"/>
			</g>
			<g>
				
					<linearGradient id="SVGID_7_" gradientUnits="userSpaceOnUse" x1="108.1191" y1="-771.6143" x2="119.7647" y2="-778.4257" gradientTransform="matrix(0.9367 0.1104 -0.1104 -0.8073 -126.0145 -564.0619)">
					<stop  offset="0" style="stop-color:#BCC6CD"/>
					<stop  offset="0.156" style="stop-color:#B4BEC8"/>
					<stop  offset="0.8735" style="stop-color:#747A81"/>
					<stop  offset="1" style="stop-color:#90969C"/>
				</linearGradient>
				<path fill="url(#SVGID_7_)" d="M69.4,81.9c0,0-0.9,0.899-6.68-2.42c-5.78-3.32-5.13-4.351-5.13-4.351l5.78-9.89l11.81,6.77
					L69.4,81.9z"/>
			</g>
			<g>
				
					<radialGradient id="SVGID_8_" cx="192.6162" cy="-643.4668" r="10.3946" gradientTransform="matrix(0.8946 0.4436 0.2777 -0.635 72.9674 -420.7933)" gradientUnits="userSpaceOnUse">
					<stop  offset="0" style="stop-color:#1B1B1B;stop-opacity:0.9"/>
					<stop  offset="1" style="stop-color:#1B1B1B;stop-opacity:0"/>
				</radialGradient>
				<path fill="url(#SVGID_8_)" d="M69.4,81.9c0,0-0.9,0.899-6.68-2.42c-5.78-3.32-5.13-4.351-5.13-4.351l6.25-10.66l11.81,6.77
					L69.4,81.9z"/>
			</g>
		</g>
		<path fill="#52752F" d="M80.29,17.01c-17.21,0-31.16,13.95-31.16,31.16s13.95,31.16,31.16,31.16s31.16-13.95,31.16-31.16
			C111.46,30.96,97.5,17.01,80.29,17.01z M80.52,70.34c-12.43,0-22.5-10.07-22.5-22.5c0-12.43,10.07-22.5,22.5-22.5
			s22.5,10.07,22.5,22.5C103.02,60.26,92.95,70.34,80.52,70.34z"/>
		
			<linearGradient id="SVGID_9_" gradientUnits="userSpaceOnUse" x1="429.4863" y1="-162.1865" x2="475.7234" y2="-208.4237" gradientTransform="matrix(1 0 0 -1 -371 -136.5)">
			<stop  offset="0" style="stop-color:#5E8830"/>
			<stop  offset="0.4614" style="stop-color:#6B8F3F"/>
			<stop  offset="0.85" style="stop-color:#537C26"/>
			<stop  offset="0.8795" style="stop-color:#598329"/>
			<stop  offset="0.9226" style="stop-color:#699730"/>
			<stop  offset="0.97" style="stop-color:#80B43B"/>
		</linearGradient>
		<path fill="url(#SVGID_9_)" d="M80.52,16.56c-17.21,0-31.16,13.95-31.16,31.16c0,17.21,13.95,31.16,31.16,31.16
			s31.16-13.95,31.16-31.16C111.68,30.51,97.73,16.56,80.52,16.56z M80.52,70.34c-12.43,0-22.5-10.07-22.5-22.5
			c0-12.43,10.07-22.5,22.5-22.5s22.5,10.07,22.5,22.5C103.02,60.26,92.95,70.34,80.52,70.34z"/>
		
			<radialGradient id="SVGID_10_" cx="451.0703" cy="-184" r="31.1602" gradientTransform="matrix(1 0 0 -1 -371 -136.5)" gradientUnits="userSpaceOnUse">
			<stop  offset="0.6308" style="stop-color:#80B43B"/>
			<stop  offset="0.7689" style="stop-color:#80B43B;stop-opacity:0"/>
		</radialGradient>
		<path fill="url(#SVGID_10_)" d="M80.07,16.34c-17.21,0-31.16,13.95-31.16,31.16s13.95,31.16,31.16,31.16s31.16-13.95,31.16-31.16
			S97.28,16.34,80.07,16.34z M80.52,70.34c-12.43,0-22.5-10.07-22.5-22.5c0-12.43,10.07-22.5,22.5-22.5s22.5,10.07,22.5,22.5
			C103.02,60.26,92.95,70.34,80.52,70.34z"/>
		
			<linearGradient id="SVGID_11_" gradientUnits="userSpaceOnUse" x1="431.5322" y1="-173.3149" x2="471.9239" y2="-195.5922" gradientTransform="matrix(1 0 0 -1 -371 -136.5)">
			<stop  offset="0.0068" style="stop-color:#40692A"/>
			<stop  offset="0.1044" style="stop-color:#49732C"/>
			<stop  offset="0.4857" style="stop-color:#679634"/>
			<stop  offset="0.7979" style="stop-color:#79AC39"/>
			<stop  offset="1" style="stop-color:#80B43B"/>
		</linearGradient>
		<path fill="url(#SVGID_11_)" d="M80.52,24.78c-12.74,0-23.06,10.33-23.06,23.06S67.78,70.9,80.52,70.9
			c12.74,0,23.06-10.331,23.06-23.061S93.26,24.78,80.52,24.78z M80.52,70.34c-12.43,0-22.5-10.07-22.5-22.5
			c0-12.43,10.07-22.5,22.5-22.5s22.5,10.07,22.5,22.5C103.02,60.26,92.95,70.34,80.52,70.34z"/>
		
			<linearGradient id="SVGID_12_" gradientUnits="userSpaceOnUse" x1="434.1934" y1="-167.0137" x2="468.9615" y2="-201.7818" gradientTransform="matrix(1 0 0 -1 -371 -136.5)">
			<stop  offset="0.0048" style="stop-color:#768290"/>
			<stop  offset="0.0351" style="stop-color:#8190A2"/>
			<stop  offset="0.0926" style="stop-color:#93A6BD"/>
			<stop  offset="0.1552" style="stop-color:#A1B7D2"/>
			<stop  offset="0.2243" style="stop-color:#ABC4E1"/>
			<stop  offset="0.3053" style="stop-color:#B0CBEA"/>
			<stop  offset="0.4267" style="stop-color:#B2CDED"/>
			<stop  offset="0.7762" style="stop-color:#D3DFE4"/>
			<stop  offset="0.8252" style="stop-color:#CFDBE0"/>
			<stop  offset="0.8749" style="stop-color:#C5CFD4"/>
			<stop  offset="0.9249" style="stop-color:#B2BABF"/>
			<stop  offset="0.9748" style="stop-color:#999EA3"/>
			<stop  offset="1" style="stop-color:#8A8D92"/>
		</linearGradient>
		<circle opacity="0.5" fill="url(#SVGID_12_)" enable-background="new    " cx="80.52" cy="47.84" r="22.5"/>
		<g>
			
				<radialGradient id="SVGID_13_" cx="461.8691" cy="-177.3628" r="16.6387" gradientTransform="matrix(1 0 0 -1 -371 -136.5)" gradientUnits="userSpaceOnUse">
				<stop  offset="0" style="stop-color:#FFFFFF"/>
				<stop  offset="1" style="stop-color:#FFFFFF;stop-opacity:0"/>
			</radialGradient>
			<path fill="url(#SVGID_13_)" d="M80.74,36.14c6.59,0,11.93,5.34,11.93,11.92c0,1.08-0.15,2.13-0.42,3.13l7.63,2.77
				c0.57-1.86,0.88-3.84,0.88-5.89c0-11.06-8.97-20.02-20.03-20.02c-0.15,0-0.3,0-0.45,0v8.11C80.44,36.14,80.59,36.14,80.74,36.14z
				"/>
		</g>
		<g opacity="0.8">
			
				<radialGradient id="SVGID_14_" cx="438.3301" cy="-194.5352" r="5.6098" gradientTransform="matrix(1 0 0 -1 -371 -136.5)" gradientUnits="userSpaceOnUse">
				<stop  offset="0" style="stop-color:#FFFFFF"/>
				<stop  offset="1" style="stop-color:#FFFFFF;stop-opacity:0"/>
			</radialGradient>
			<path fill="url(#SVGID_14_)" d="M71.33,60.18c-2.74,0-4.96-2.22-4.96-4.96c0-0.68,0.14-1.33,0.38-1.91l-3.69-1.45
				c-0.46,1.07-0.71,2.25-0.71,3.49c0,4.89,3.97,8.86,8.86,8.86c0.37,0,0.74-0.03,1.1-0.07v-4.05
				C71.99,60.15,71.67,60.18,71.33,60.18z"/>
		</g>
		<g>
			<path fill="#212121" d="M45.79,120.971v-1.631h0.2v1.45h0.76v0.181H45.79z"/>
			<path fill="#212121" d="M46.89,120.38c0-0.34,0.22-0.62,0.58-0.62c0.36,0,0.58,0.28,0.58,0.62c0,0.341-0.21,0.62-0.57,0.62
				S46.89,120.721,46.89,120.38z M47.87,120.38c0-0.239-0.14-0.45-0.39-0.45s-0.39,0.211-0.39,0.45c0,0.24,0.14,0.46,0.39,0.46
				S47.87,120.62,47.87,120.38z"/>
			<path fill="#212121" d="M48.36,121.27l0.09-0.129c0.1,0.109,0.21,0.159,0.38,0.159c0.2,0,0.38-0.1,0.38-0.34v-0.181
				c-0.09,0.121-0.23,0.211-0.4,0.211c-0.31,0-0.52-0.23-0.52-0.61s0.21-0.61,0.52-0.61c0.16,0,0.3,0.08,0.4,0.211V119.8h0.18v1.16
				c0,0.37-0.28,0.5-0.56,0.5C48.64,121.45,48.5,121.41,48.36,121.27z M49.22,120.63v-0.521c-0.07-0.1-0.21-0.189-0.35-0.189
				c-0.24,0-0.38,0.189-0.38,0.45c0,0.26,0.14,0.45,0.38,0.45C49.01,120.82,49.15,120.73,49.22,120.63z"/>
			<path fill="#212121" d="M49.7,120.38c0-0.34,0.22-0.62,0.58-0.62c0.36,0,0.58,0.28,0.58,0.62c0,0.341-0.22,0.62-0.58,0.62
				C49.92,121,49.7,120.721,49.7,120.38z M50.67,120.38c0-0.239-0.14-0.45-0.39-0.45s-0.39,0.211-0.39,0.45
				c0,0.24,0.14,0.46,0.39,0.46S50.67,120.62,50.67,120.38z"/>
			<path fill="#212121" d="M52.57,121c-0.46,0-0.84-0.38-0.84-0.84c0-0.471,0.38-0.84,0.84-0.84c0.47,0,0.84,0.38,0.84,0.84
				S53.03,121,52.57,121z M52.57,119.391c-0.42,0-0.77,0.34-0.77,0.77c0,0.42,0.35,0.77,0.77,0.77c0.42,0,0.77-0.35,0.77-0.77
				C53.33,119.73,52.99,119.391,52.57,119.391z M52.93,120.52c-0.09,0.101-0.21,0.16-0.36,0.16c-0.28,0-0.51-0.229-0.51-0.52
				s0.23-0.52,0.51-0.52c0.15,0,0.27,0.06,0.36,0.159l-0.06,0.06c-0.06-0.09-0.18-0.139-0.3-0.139c-0.22,0-0.42,0.18-0.42,0.439
				s0.2,0.439,0.42,0.439c0.12,0,0.23-0.06,0.3-0.14L52.93,120.52z"/>
			<path fill="#212121" d="M54.35,120.971v-1.631h1.07v0.18h-0.86v0.53h0.85v0.181h-0.85v0.56h0.86v0.181H54.35z"/>
			<path fill="#212121" d="M55.73,120.971v-1.631h0.18v1.631H55.73z"/>
			<path fill="#212121" d="M57.02,120.971v-0.131c-0.1,0.11-0.23,0.16-0.39,0.16c-0.2,0-0.41-0.13-0.41-0.391
				c0-0.27,0.21-0.389,0.41-0.389c0.16,0,0.3,0.049,0.39,0.159v-0.21c0-0.16-0.13-0.25-0.3-0.25c-0.14,0-0.26,0.051-0.36,0.16
				l-0.09-0.13c0.13-0.13,0.28-0.2,0.47-0.2c0.25,0,0.46,0.109,0.46,0.4v0.81h-0.18V120.971z M57.02,120.721V120.5
				c-0.07-0.1-0.2-0.141-0.32-0.141c-0.17,0-0.29,0.111-0.29,0.261s0.12,0.26,0.29,0.26C56.82,120.87,56.95,120.82,57.02,120.721z"
				/>
			<path fill="#212121" d="M57.47,120.82l0.09-0.131c0.08,0.09,0.23,0.17,0.39,0.17c0.18,0,0.28-0.08,0.28-0.199
				c0-0.29-0.73-0.11-0.73-0.551c0-0.189,0.16-0.34,0.44-0.34c0.2,0,0.34,0.08,0.44,0.17l-0.09,0.131c-0.07-0.08-0.2-0.15-0.35-0.15
				c-0.16,0-0.26,0.08-0.26,0.189c0,0.261,0.73,0.091,0.73,0.551c0,0.199-0.16,0.359-0.46,0.359
				C57.75,121,57.59,120.939,57.47,120.82z"/>
			<path fill="#212121" d="M58.75,120.721v-0.771h-0.2v-0.16h0.2v-0.319h0.19v0.319h0.24v0.16h-0.24v0.729
				c0,0.09,0.04,0.15,0.12,0.15c0.05,0,0.1-0.03,0.12-0.051l0.05,0.141c-0.05,0.04-0.11,0.08-0.22,0.08
				C58.83,121,58.75,120.9,58.75,120.721z"/>
			<path fill="#212121" d="M59.4,119.5c0-0.07,0.06-0.12,0.12-0.12s0.12,0.06,0.12,0.12s-0.05,0.12-0.12,0.12
				S59.4,119.57,59.4,119.5z M59.43,120.971v-1.181h0.18v1.181H59.43z"/>
			<path fill="#212121" d="M59.91,120.38c0-0.351,0.24-0.62,0.59-0.62c0.21,0,0.34,0.09,0.43,0.211l-0.12,0.109
				c-0.08-0.109-0.18-0.15-0.3-0.15c-0.25,0-0.41,0.19-0.41,0.45c0,0.261,0.16,0.46,0.41,0.46c0.12,0,0.22-0.05,0.3-0.15l0.12,0.11
				c-0.09,0.12-0.22,0.21-0.43,0.21C60.15,121,59.91,120.73,59.91,120.38z"/>
			<path fill="#212121" d="M61.74,120.74l0.12-0.16c0.1,0.12,0.28,0.23,0.51,0.23c0.29,0,0.38-0.16,0.38-0.281
				c0-0.42-0.96-0.189-0.96-0.77c0-0.27,0.24-0.449,0.56-0.449c0.25,0,0.44,0.09,0.58,0.229l-0.12,0.149
				c-0.12-0.14-0.29-0.199-0.47-0.199c-0.19,0-0.33,0.1-0.33,0.26c0,0.37,0.96,0.16,0.96,0.76c0,0.23-0.16,0.48-0.6,0.48
				C62.08,121,61.87,120.891,61.74,120.74z"/>
			<path fill="#212121" d="M63.19,120.38c0-0.34,0.24-0.62,0.58-0.62c0.36,0,0.57,0.28,0.57,0.631v0.049h-0.95
				c0.01,0.221,0.17,0.41,0.42,0.41c0.14,0,0.27-0.05,0.37-0.149l0.09,0.12c-0.12,0.119-0.28,0.18-0.47,0.18
				C63.44,121,63.19,120.75,63.19,120.38z M63.77,119.91c-0.25,0-0.38,0.21-0.39,0.39h0.77C64.16,120.13,64.04,119.91,63.77,119.91z
				"/>
			<path fill="#212121" d="M65.37,120.971v-0.131c-0.1,0.11-0.23,0.16-0.39,0.16c-0.2,0-0.41-0.13-0.41-0.391
				c0-0.27,0.21-0.389,0.41-0.389c0.16,0,0.3,0.049,0.39,0.159v-0.21c0-0.16-0.13-0.25-0.3-0.25c-0.14,0-0.26,0.051-0.36,0.16
				l-0.09-0.13c0.13-0.13,0.28-0.2,0.47-0.2c0.25,0,0.46,0.109,0.46,0.4v0.81h-0.18V120.971z M65.37,120.721V120.5
				c-0.07-0.1-0.2-0.141-0.32-0.141c-0.17,0-0.29,0.111-0.29,0.261s0.12,0.26,0.29,0.26C65.18,120.87,65.3,120.82,65.37,120.721z"/>
			<path fill="#212121" d="M65.93,120.971v-1.181h0.18v0.19c0.1-0.121,0.23-0.211,0.39-0.211v0.19c-0.02,0-0.04,0-0.07,0
				c-0.11,0-0.27,0.09-0.32,0.19v0.83h-0.18V120.971z"/>
			<path fill="#212121" d="M66.67,120.38c0-0.351,0.24-0.62,0.59-0.62c0.21,0,0.34,0.09,0.43,0.211l-0.12,0.109
				c-0.08-0.109-0.18-0.15-0.3-0.15c-0.25,0-0.41,0.19-0.41,0.45c0,0.261,0.16,0.46,0.41,0.46c0.12,0,0.22-0.05,0.3-0.15l0.12,0.11
				c-0.09,0.12-0.22,0.21-0.43,0.21C66.9,121,66.67,120.73,66.67,120.38z"/>
			<path fill="#212121" d="M68.75,120.971v-0.781c0-0.209-0.1-0.27-0.27-0.27c-0.14,0-0.28,0.09-0.35,0.18v0.86h-0.18v-1.63h0.18
				v0.62c0.08-0.101,0.24-0.2,0.42-0.2c0.25,0,0.38,0.12,0.38,0.38v0.83h-0.18V120.971z"/>
			<path fill="#212121" d="M69.26,120.859c0-0.069,0.06-0.129,0.13-0.129c0.07,0,0.13,0.06,0.13,0.129c0,0.07-0.06,0.131-0.13,0.131
				C69.32,120.99,69.26,120.939,69.26,120.859z"/>
			<path fill="#212121" d="M70.41,120.74l0.12-0.16c0.1,0.12,0.28,0.23,0.51,0.23c0.29,0,0.38-0.16,0.38-0.281
				c0-0.42-0.96-0.189-0.96-0.77c0-0.27,0.24-0.449,0.56-0.449c0.25,0,0.44,0.09,0.58,0.229l-0.12,0.149
				c-0.12-0.14-0.29-0.199-0.47-0.199c-0.19,0-0.33,0.1-0.33,0.26c0,0.37,0.96,0.16,0.96,0.76c0,0.23-0.16,0.48-0.6,0.48
				C70.75,121,70.54,120.891,70.41,120.74z"/>
			<path fill="#212121" d="M72.43,120.971l-0.66-1.631H72l0.55,1.41l0.55-1.41h0.23l-0.65,1.631H72.43z"/>
			<path fill="#212121" d="M73.43,120.16c0-0.51,0.37-0.84,0.84-0.84c0.29,0,0.49,0.13,0.63,0.3l-0.16,0.101
				c-0.1-0.131-0.28-0.221-0.47-0.221c-0.36,0-0.63,0.27-0.63,0.66c0,0.39,0.27,0.66,0.63,0.66c0.2,0,0.36-0.09,0.44-0.18v-0.33
				h-0.56v-0.181h0.76v0.591c-0.15,0.17-0.37,0.279-0.64,0.279C73.81,121,73.43,120.66,73.43,120.16z"/>
			<path fill="#212121" d="M75.87,120.971v-1.631h0.18v0.631c0.1-0.131,0.24-0.211,0.4-0.211c0.31,0,0.52,0.24,0.52,0.62
				S76.75,121,76.45,121c-0.17,0-0.31-0.08-0.4-0.21v0.181H75.87z M76.41,120.84c0.24,0,0.38-0.189,0.38-0.46
				c0-0.26-0.14-0.46-0.38-0.46c-0.15,0-0.29,0.09-0.35,0.189v0.541C76.12,120.75,76.26,120.84,76.41,120.84z"/>
			<path fill="#212121" d="M77.24,121.27c0.03,0.01,0.07,0.021,0.1,0.021c0.08,0,0.13-0.03,0.18-0.12l0.08-0.18l-0.49-1.19h0.2
				l0.39,0.97l0.39-0.97h0.2l-0.59,1.421c-0.07,0.17-0.19,0.239-0.35,0.239c-0.04,0-0.1-0.01-0.13-0.021L77.24,121.27z"/>
			<path fill="#212121" d="M79.6,120.971l-0.66-1.631h0.23l0.55,1.41l0.55-1.41h0.23l-0.65,1.631H79.6z"/>
			<path fill="#212121" d="M80.5,120.38c0-0.34,0.22-0.62,0.58-0.62s0.58,0.28,0.58,0.62c0,0.341-0.21,0.62-0.57,0.62
				C80.73,121,80.5,120.721,80.5,120.38z M81.48,120.38c0-0.239-0.14-0.45-0.39-0.45s-0.39,0.211-0.39,0.45
				c0,0.24,0.14,0.46,0.39,0.46S81.48,120.62,81.48,120.38z"/>
			<path fill="#212121" d="M81.9,120.38c0-0.34,0.22-0.62,0.58-0.62s0.58,0.28,0.58,0.62c0,0.341-0.22,0.62-0.57,0.62
				C82.14,121,81.9,120.721,81.9,120.38z M82.88,120.38c0-0.239-0.14-0.45-0.39-0.45s-0.39,0.211-0.39,0.45
				c0,0.24,0.14,0.46,0.39,0.46S82.88,120.62,82.88,120.38z"/>
			<path fill="#212121" d="M83.37,120.971v-1.181h0.18v0.19c0.1-0.121,0.23-0.211,0.39-0.211v0.19c-0.02,0-0.04,0-0.07,0
				c-0.11,0-0.27,0.09-0.32,0.19v0.83h-0.18V120.971z"/>
			<path fill="#212121" d="M85.6,120.971v-0.801c0-0.15-0.06-0.24-0.22-0.24c-0.12,0-0.25,0.08-0.31,0.18v0.861h-0.18v-0.801
				c0-0.15-0.06-0.24-0.22-0.24c-0.12,0-0.25,0.09-0.31,0.18v0.861h-0.18v-1.181h0.18v0.17c0.05-0.08,0.21-0.2,0.38-0.2
				c0.18,0,0.28,0.1,0.31,0.221c0.07-0.11,0.22-0.221,0.4-0.221c0.21,0,0.33,0.12,0.33,0.36v0.851H85.6z"/>
			<path fill="#212121" d="M86.09,120.38c0-0.34,0.24-0.62,0.58-0.62c0.36,0,0.57,0.28,0.57,0.631v0.049h-0.95
				c0.01,0.221,0.17,0.41,0.42,0.41c0.14,0,0.27-0.05,0.37-0.149l0.09,0.12c-0.12,0.119-0.28,0.18-0.47,0.18
				C86.34,121,86.09,120.75,86.09,120.38z M86.66,119.91c-0.25,0-0.38,0.21-0.39,0.39h0.77C87.05,120.13,86.93,119.91,86.66,119.91z
				"/>
			<path fill="#212121" d="M88.39,120.971v-0.181c-0.09,0.12-0.23,0.21-0.4,0.21c-0.31,0-0.52-0.23-0.52-0.62
				c0-0.38,0.22-0.62,0.52-0.62c0.16,0,0.3,0.08,0.4,0.211v-0.631h0.18v1.631H88.39z M88.39,120.65v-0.53
				c-0.06-0.101-0.21-0.19-0.35-0.19c-0.24,0-0.38,0.2-0.38,0.461c0,0.26,0.14,0.459,0.38,0.459
				C88.18,120.84,88.32,120.75,88.39,120.65z"/>
			<path fill="#212121" d="M88.91,119.5c0-0.07,0.06-0.12,0.12-0.12c0.06,0,0.12,0.06,0.12,0.12s-0.05,0.12-0.12,0.12
				C88.96,119.62,88.91,119.57,88.91,119.5z M88.94,120.971v-1.181h0.18v1.181H88.94z"/>
			<path fill="#212121" d="M90.23,120.971v-0.131c-0.1,0.11-0.23,0.16-0.39,0.16c-0.2,0-0.41-0.13-0.41-0.391
				c0-0.27,0.21-0.389,0.41-0.389c0.16,0,0.3,0.049,0.39,0.159v-0.21c0-0.16-0.13-0.25-0.3-0.25c-0.14,0-0.26,0.051-0.36,0.16
				l-0.09-0.13c0.13-0.13,0.28-0.2,0.47-0.2c0.25,0,0.46,0.109,0.46,0.4v0.81h-0.18V120.971z M90.23,120.721V120.5
				c-0.07-0.1-0.2-0.141-0.32-0.141c-0.17,0-0.29,0.111-0.29,0.261s0.12,0.26,0.29,0.26C90.03,120.87,90.15,120.82,90.23,120.721z"
				/>
			<path fill="#212121" d="M90.74,120.859c0-0.069,0.06-0.129,0.13-0.129c0.07,0,0.13,0.06,0.13,0.129c0,0.07-0.06,0.131-0.13,0.131
				C90.8,120.99,90.74,120.939,90.74,120.859z"/>
		</g>
	</g>
</g>
</svg>
