<?xml version="1.0" encoding="UTF-8" standalone="no"?>
<!-- Created with Inkscape (http://www.inkscape.org/) -->

<svg
   xmlns:dc="http://purl.org/dc/elements/1.1/"
   xmlns:cc="http://creativecommons.org/ns#"
   xmlns:rdf="http://www.w3.org/1999/02/22-rdf-syntax-ns#"
   xmlns:svg="http://www.w3.org/2000/svg"
   xmlns="http://www.w3.org/2000/svg"
   xmlns:sodipodi="http://sodipodi.sourceforge.net/DTD/sodipodi-0.dtd"
   xmlns:inkscape="http://www.inkscape.org/namespaces/inkscape"
   id="svg2"
   viewBox="0 0 270 360"
   version="1.0"
   inkscape:version="0.48.4 r9939"
   width="100%"
   height="100%"
   sodipodi:docname="tear.svg">
  <defs
     id="defs9" />
  <sodipodi:namedview
     pagecolor="#ffffff"
     bordercolor="#666666"
     borderopacity="1"
     objecttolerance="10"
     gridtolerance="10"
     guidetolerance="10"
     inkscape:pageopacity="0"
     inkscape:pageshadow="2"
     inkscape:window-width="640"
     inkscape:window-height="480"
     id="namedview7"
     showgrid="false"
     inkscape:zoom="0.88602431"
     inkscape:cx="135"
     inkscape:cy="180"
     inkscape:window-x="0"
     inkscape:window-y="27"
     inkscape:window-maximized="0"
     inkscape:current-layer="svg2" />
  <path
     id="path2390"
     style="fill:#a5a5a5"
     d="m7.2172 357.89l0.1035-2.1-0.6949 0.56c-0.3822 0.31-0.8706 0.57-1.0854 0.57h-0.3906l-0.1822-1.06-0.1823-1.06-0.3289 0.12c-0.1809 0.07-0.7972 0.94-1.3696 1.93l-1.0407 1.81-0.2351-0.44-0.2351-0.43-0.0046 0.52-0.0046 0.51-0.4105-0.51-0.41047-0.52-0.33912-1.64-0.33912-1.64v-177.17-177.17l134.93 0.00472h134.93v148.2 148.19l-0.45-0.44-0.45-0.43-0.4 0.38-0.39 0.38-0.49-0.68c-0.47-0.63-1.16-2.29-2-4.77l-0.37-1.1-0.6-0.18-0.6-0.18-0.54 0.63-0.54 0.62-0.54-1.26c-0.29-0.7-0.51-1.47-0.47-1.71l0.07-0.43h-0.29-0.29l-0.19 1.02-0.2 1.02-0.43 0.19-0.43 0.19-0.04-0.6c-0.01-0.33-0.01-0.8 0.02-1.04l0.05-0.43h-0.35-0.35l0.13 0.98 0.12 0.99-0.36 0.4-0.37 0.39-0.17-0.53-0.17-0.53-0.26 0.19-0.26 0.18-0.36-0.93-0.37-0.92-0.83 1.14-0.84 1.14-0.72-1.69-0.72-1.69-0.6-0.01-0.6-0.02-0.59 0.45c-0.32 0.25-0.83 0.46-1.12 0.46h-0.53v0.7 0.69l-0.23-0.08c-0.3-0.12-1.43 1.22-1.89 2.23l-0.37 0.79 0.34 0.13 0.35 0.14v0.63 0.63l-0.52 0.23-0.52 0.23 0.36 0.26 0.36 0.26-0.18 1.27-0.17 1.26-1.28-0.12-1.29-0.12-0.17 1.02-0.18 1.03h-0.6-0.61l-0.04 0.44c-0.02 0.24-0.02 0.53-0.01 0.66 0.02 0.12-0.42 0.58-0.96 1.01l-0.99 0.8-0.7 1.18-0.7 1.18-0.39-0.18-0.4-0.17-0.28 0.6-0.27 0.6 0.15 0.96 0.16 0.95h-0.21c-0.12 0-0.47-0.35-0.78-0.78l-0.56-0.79-0.01 0.72-0.01 0.72-0.36 0.41c-0.2 0.23-0.5 0.42-0.67 0.42h-0.32l-0.73-2.71-0.72-2.7-0.77-0.79c-0.89-0.9-1.23-0.98-1.23-0.31v0.47l-0.59 0.62-0.59 0.62-0.87-0.42-0.88-0.42-0.62 0.45-0.62 0.46-0.2 1.05c-0.11 0.59-0.47 1.73-0.8 2.55l-0.59 1.5-0.64-0.8-0.64-0.8-1.05 0.06-1.05 0.05-0.81-1.1-0.81-1.1-0.21 1.17-0.2 1.17-0.41 0.18-0.41 0.18v0.94 0.95l-0.41 0.66-0.42 0.66-0.86 0.02-0.86 0.01-0.03 0.53c-0.01 0.29-0.05 0.74-0.07 1l-0.05 0.47-0.43-0.19-0.42-0.19-0.35 0.48-0.34 0.48-0.5-0.22c-0.5-0.21-1.44-1.31-2.61-3.01l-0.6-0.89-0.36-0.01-0.36-0.02-0.3-0.65-0.3-0.65-0.69 0.14-0.68 0.15-0.51-1.44-0.51-1.43 0.18-0.59 0.19-0.59-0.6 0.61-0.6 0.61h-0.46-0.47l-0.37-1.05-0.37-1.05h-0.3-0.3l0.18 0.53 0.17 0.54-0.59-0.37-0.59-0.37v0.38 0.39l-0.68-0.26c-0.37-0.14-0.87-0.25-1.12-0.24-0.52 0-2.14-1.22-2.49-1.89l-0.24-0.46h-1.01-1.02l-0.09 0.79-0.1 0.79h-0.58-0.59l-0.21 1.17c-0.11 0.64-0.34 1.33-0.51 1.53l-0.32 0.36-0.65-1.63-0.66-1.62-0.75-0.69-0.75-0.69-0.49-1.1c-0.26-0.61-0.61-1.13-0.76-1.14-0.15-0.02-0.65-0.47-1.1-1l-0.83-0.96h-0.39-0.4l-1.12-1.2-1.12-1.2-0.19 0.35-0.18 0.35-0.54-0.56-0.53-0.57-0.79 0.23-0.78 0.23v-0.47-0.48l-0.7 1.01-0.69 1.01-0.8-0.61-0.81-0.61v-0.49-0.48h-0.31-0.32l-0.31-1.05-0.32-1.05-0.27 0.2-0.27 0.19v-0.72-0.73l-0.75-0.4-0.75-0.4v-0.75-0.75l-1.22 0.07-1.22 0.08-0.13-0.42-0.14-0.42-0.74 0.02-0.74 0.01-0.79 1.37-0.8 1.37-0.37-0.6-0.37-0.59-0.19 0.8c-0.1 0.44-0.29 1.01-0.44 1.26l-0.26 0.47-0.79-0.86-0.79-0.85v-0.72-0.72l-0.39-0.47c-0.22-0.25-0.7-1.44-1.09-2.65-0.38-1.2-0.81-2.27-0.94-2.37l-0.25-0.17-0.36 0.79c-0.51 1.15-0.53 1.16-1.04 0.42l-0.46-0.67 0.18 1.22 0.17 1.23-0.65-1.66-0.65-1.66h-0.39c-0.21 0-0.59 0.23-0.84 0.52-0.24 0.29-0.58 0.53-0.73 0.53h-0.29l-0.2 0.9c-0.11 0.5-0.48 1.35-0.82 1.9l-0.62 0.98-0.62 0.19-0.63 0.19-0.38-0.37-0.38-0.37-0.51 0.6-0.52 0.6-0.22-0.69-0.22-0.69-0.57-0.18-0.58-0.18-0.39 0.73-0.39 0.73-0.26-0.82-0.27-0.83-0.54 0.58-0.54 0.57h-0.8-0.8v0.87 0.88h-0.45-0.45l-0.01 0.43c-0.01 0.24-0.42 0.98-0.9 1.65l-0.89 1.21v-0.76-0.77l-0.42 0.19-0.43 0.19-0.17 0.81-0.18 0.82-1.19-0.36-1.2-0.35-0.53 0.27c-0.29 0.15-0.65 0.24-0.79 0.2-0.42-0.11-1.72 1.42-2.19 2.58-0.24 0.58-0.61 1.41-0.82 1.85l-0.39 0.8-0.06 2.43-0.05 2.42-0.57 1.49-0.56 1.49-0.02-0.61-0.03-0.61h-0.28-0.28l-0.19 0.7-0.19 0.7h-0.8-0.8l-0.53 1.08-0.52 1.07-0.02 0.76-0.02 0.76-0.5-0.86c-0.28-0.48-0.75-1.1-1.04-1.39s-0.52-0.67-0.52-0.84-0.31-0.72-0.68-1.23l-0.67-0.93-0.65 0.34-0.65 0.33-0.17 0.98-0.17 0.98h-0.28-0.29l-0.35-2.01c-0.52-2.96-2.4-6.54-4.24-8.06l-0.55-0.46v0.37 0.37l-0.95-0.13-0.95-0.12-0.25-0.78c-0.14-0.43-0.52-1.23-0.85-1.77l-0.6-0.97v-0.67-0.66l-0.36-0.42c-0.19-0.23-0.45-0.42-0.56-0.42h-0.19l-0.18 1.5c-0.1 0.83-0.36 1.91-0.58 2.42l-0.41 0.91-0.37-1.47-0.38-1.47-0.86-0.95-0.86-0.95-0.48-2.53c-0.4-2.12-0.86-3.71-1.28-4.42-0.17-0.29-0.96 1.21-1 1.9l-0.03 0.69-0.42-1.1c-0.23-0.61-0.57-1.23-0.76-1.36l-0.35-0.26-0.55 0.84c-0.29 0.46-0.65 0.85-0.78 0.86s-0.68 0.33-1.21 0.7l-0.98 0.67v0.53l-0.01 0.52-0.25-0.46-0.26-0.47-1.42 0.1-1.43 0.1-0.56-0.81-0.57-0.81v-0.76-0.77l-0.42-0.68-0.43-0.68-0.18 0.22c-0.1 0.11-0.21 0.7-0.25 1.3l-0.07 1.1h-0.37-0.38l-0.03 0.79-0.04 0.78-0.13-0.61-0.14-0.61h-0.54-0.53l0.11 0.96 0.12 0.96-0.3-0.78c-0.16-0.44-0.38-0.79-0.47-0.79h-0.18l0.09 0.79 0.09 0.78-0.595 0.02c-0.33 0.02-0.768-0.12-0.975-0.3l-0.374-0.33v0.61 0.6l-0.45-0.2-0.45-0.2v0.36c0 0.2-0.203 0.6-0.45 0.89l-0.451 0.53-0.133-0.47c-0.073-0.25-0.396-1.49-0.718-2.74l-0.586-2.28-0.705-1.29-0.705-1.29-0.519-0.21-0.519-0.2-0.515-1.7-0.516-1.69-0.949 0.09-0.949 0.09-0.803-1.78c-0.766-1.7-1.21-2.61-1.789-3.66l-0.262-0.47-0.258 0.47-0.258 0.48-0.004-0.44-0.005-0.44-0.368 0.09c-0.202 0.05-0.606 0.43-0.899 0.84l-0.532 0.76v0.86c0 0.47-0.202 1.43-0.45 2.12l-0.45 1.25v0.91 0.9l-0.299-0.21-0.3-0.22v0.68 0.68l-0.673 0.2-0.673 0.21-0.656-0.89-0.657-0.89-0.458 1.03-0.457 1.03 0.187 0.22 0.188 0.22h-0.349-0.35v0.63 0.63l-0.375 0.47-0.375 0.47 0.35-0.23 0.349-0.23-0.349 1.14c-0.339 1.1-0.72 1.64-1.165 1.65l-0.215 0.01 0.189-0.61 0.189-0.61-0.798 0.98c-0.439 0.53-0.799 1.15-0.799 1.37 0 0.21-0.209 0.66-0.465 0.99l-0.466 0.6-0.048 0.73-0.048 0.74h-0.236-0.236v0.66 0.67l-0.482 0.21-0.482 0.22 0.127 1.27 0.127 1.26-0.544 0.17-0.545 0.17v0.79 0.79l-0.45 0.43-0.449 0.44v-0.3c0-0.16-0.202 0.04-0.448 0.45l-0.448 0.75-0.041 2.1-0.04 2.11-1.611 2.03c-0.885 1.12-1.61 2.17-1.61 2.35s-0.471 1.48-1.047 2.89l-1.047 2.57-0.193 1.41-0.194 1.41-0.409-0.18-0.408-0.19v0.54 0.54l-0.443 0.52-0.443 0.51-0.587-0.37c-0.773-0.48-0.926-0.46-0.926 0.13v0.48l-0.478 0.22-0.477 0.21-0.157-0.7-0.158-0.7h-0.264-0.265v-0.68-0.68l-0.75-0.95-0.749-0.94v-0.58c0-0.32-0.191-0.88-0.423-1.25l-0.422-0.68-1.376 1.16-1.376 1.15-0.301-0.22c-0.165-0.12-0.31-0.48-0.321-0.81l-0.021-0.59-0.233 0.7-0.232 0.69-0.2-1.25c-0.11-0.68-0.379-1.52-0.597-1.87l-0.396-0.63-0.799 1-0.799 1.01-0.184 1.13c-0.203 1.27-0.226 1.29-1.001 0.8l-0.546-0.34-0.185-0.86-0.185-0.86-0.899-0.74-0.898-0.75v-0.48-0.48l-0.75-0.94-0.75-0.95v-0.48c0-0.27-0.219-0.88-0.487-1.35l-0.488-0.87-0.412 0.4-0.412 0.39v1.03 1.03l-0.262-0.19-0.262-0.19v0.88c0 0.49-0.096 0.99-0.212 1.13l-0.212 0.25-0.416-0.67-0.416-0.66-0.459 0.44-0.459 0.45v0.48 0.48h-0.31-0.309l-0.241-0.76-0.241-0.76-0.217 0.41-0.217 0.41h-0.534-0.535l-0.4-1.48-0.401-1.49-0.122 0.63-0.122 0.63-0.349-0.13c-0.193-0.07-0.488-0.45-0.656-0.84l-0.306-0.71-0.744 0.55c-0.408 0.31-0.844 0.72-0.968 0.91l-0.225 0.36 0.162 2.21 0.162 2.21-0.372 1.19-0.372 1.2h-0.24-0.239v0.55 0.55l-0.525-0.19-0.525-0.19-0.306 0.25c-0.416 0.35-2.842 4.76-2.842 5.18 0 0.18-0.337 0.62-0.75 0.98l-0.749 0.66v0.39 0.38l-0.975-0.04-0.974-0.04-0.489 0.29-0.489 0.3-0.454 1.32-0.455 1.33-0.821 0.95-0.822 0.96-0.484 0.05c-0.266 0.02-0.802 0.08-1.191 0.12l-0.708 0.09-0.27 0.48c-0.148 0.27-0.354 0.88-0.459 1.36-0.104 0.48-0.41 1.12-0.68 1.42l-0.492 0.56h-0.492-0.492l-0.374-0.82c-0.508-1.1-0.74-1.03-1.616 0.5-0.413 0.72-1.016 1.7-1.341 2.18l-0.591 0.87-0.161 4.55c-0.089 2.49-0.202 5.09-0.251 5.76l-0.09 1.22-0.405 0.86-0.404 0.86-0.071 1.76c-0.039 0.97-0.171 2.71-0.293 3.86l-0.223 2.1-0.562 0.62-0.562 0.63v0.96 0.97l-0.3526 0.41-0.3526 0.41-0.397-0.38-0.3969-0.39-0.0046 0.31-0.0046 0.3-0.2617-0.48-0.2617-0.48-0.3334 0.24-0.3334 0.24v0.66c0 0.36-0.1012 0.73-0.2248 0.82l-0.2249 0.16 0.1034-2.11z" />
  <metadata
     id="metadata5">
    <rdf:RDF>
      <cc:Work>
        <dc:format>image/svg+xml</dc:format>
        <dc:type
           rdf:resource="http://purl.org/dc/dcmitype/StillImage" />
        <cc:license
           rdf:resource="http://creativecommons.org/licenses/publicdomain/" />
        <dc:publisher>
          <cc:Agent
             rdf:about="http://openclipart.org/">
            <dc:title>Openclipart</dc:title>
          </cc:Agent>
        </dc:publisher>
        <dc:title>Torn Paper 03</dc:title>
        <dc:date>2008-05-23T11:19:35</dc:date>
        <dc:description />
        <dc:source>https://openclipart.org/detail/16902/torn-paper-03-by-roystonlodge</dc:source>
        <dc:creator>
          <cc:Agent>
            <dc:title>roystonlodge</dc:title>
          </cc:Agent>
        </dc:creator>
        <dc:subject>
          <rdf:Bag>
            <rdf:li>paper</rdf:li>
            <rdf:li>parchment</rdf:li>
            <rdf:li>torn</rdf:li>
          </rdf:Bag>
        </dc:subject>
      </cc:Work>
      <cc:License
         rdf:about="http://creativecommons.org/licenses/publicdomain/">
        <cc:permits
           rdf:resource="http://creativecommons.org/ns#Reproduction" />
        <cc:permits
           rdf:resource="http://creativecommons.org/ns#Distribution" />
        <cc:permits
           rdf:resource="http://creativecommons.org/ns#DerivativeWorks" />
      </cc:License>
    </rdf:RDF>
  </metadata>
</svg>
